<svg xmlns="http://www.w3.org/2000/svg" width="162" height="37.277" viewBox="0 0 162 37.277">
  <g id="Group_878" data-name="Group 878" transform="translate(-18 -22)">
    <g id="Group_877" data-name="Group 877" transform="translate(18 22.18)">
      <path id="Path_396" data-name="Path 396" d="M0,.45V22.087L12.152,10.374,24.3,22.088V.45Z" transform="translate(0 -0.45)" fill="#3dbdff"/>
      <path id="Path_397" data-name="Path 397" d="M0,52.108v9.386H24.3V52.11L12.152,40.4Z" transform="translate(0 -24.458)" fill="#234c5c"/>
    </g>
    <g id="Group_876" data-name="Group 876" transform="translate(53.353 22)">
      <path id="Path_398" data-name="Path 398" d="M95.206,14.911H94.44a1.324,1.324,0,0,1-1.069-.4c-.092-.1-.247-.442-.247-1.564v-4l.124,0c.109,0,.211.006.306.006q.311,0,.787-.018l4.9,6.764H103.4v-.773l-.178-.02a4.264,4.264,0,0,1-1.836-.568A7.292,7.292,0,0,1,99.684,12.5L96.868,8.584A4.907,4.907,0,0,0,99.377,7.2a3.589,3.589,0,0,0,.92-2.449,3.432,3.432,0,0,0-.81-2.28,4.107,4.107,0,0,0-1.951-1.3A12.8,12.8,0,0,0,94.077.83H88.6v.794h.744a1.371,1.371,0,0,1,1.09.4c.092.1.247.442.247,1.564v9.352a3.041,3.041,0,0,1-.191,1.459,1.26,1.26,0,0,1-1.147.508H88.6V15.7h6.6ZM93.124,7.866V2.209A8.722,8.722,0,0,1,94.6,2.04a2.858,2.858,0,0,1,2.106.79,2.764,2.764,0,0,1,.79,2.063,2.659,2.659,0,0,1-.982,2.133,4.539,4.539,0,0,1-2.993.849c-.062,0-.141,0-.239-.005l-.16,0" transform="translate(-88.604 -0.499)" fill="#234c5c"/>
      <path id="Path_399" data-name="Path 399" d="M143.7,11.676h-.828l-.056.108a8.081,8.081,0,0,1-1.318,1.946,2.466,2.466,0,0,1-.987.624,6.5,6.5,0,0,1-1.724.162h-2.455a1.577,1.577,0,0,1-.712-.1.468.468,0,0,1-.213-.233,4.023,4.023,0,0,1-.071-1.093V8.519h2.982a3.05,3.05,0,0,1,1.257.194,1.132,1.132,0,0,1,.539.5,5.121,5.121,0,0,1,.28,1.295l.024.172h.768V5.238H140.4l-.01.189a2.238,2.238,0,0,1-.553,1.592,2.342,2.342,0,0,1-1.521.322h-2.982V2.018h3.772a4.737,4.737,0,0,1,1.428.145,1.516,1.516,0,0,1,.715.574,4.862,4.862,0,0,1,.469,1.5l.032.161h.791l-.18-3.57H130.818v.794h.712a1.479,1.479,0,0,1,1.13.358c.086.1.229.434.229,1.567v9.4a4.633,4.633,0,0,1-.111,1.331.7.7,0,0,1-.371.4,1.84,1.84,0,0,1-.877.222h-.712V15.7h11.5Z" transform="translate(-113.974 -0.498)" fill="#234c5c"/>
      <path id="Path_400" data-name="Path 400" d="M181.484,15.221a11.062,11.062,0,0,0,2.469-.989l.1-.057V9.626a3.447,3.447,0,0,1,.188-1.462,1,1,0,0,1,.968-.452h.466v-.8h-6v.8h.2a2.7,2.7,0,0,1,1.132.154.916.916,0,0,1,.424.423,3.569,3.569,0,0,1,.145,1.337v4.067a5.953,5.953,0,0,1-1.294.522,5.7,5.7,0,0,1-1.5.2,4.86,4.86,0,0,1-2.559-.766,5.447,5.447,0,0,1-2.021-2.418,8.63,8.63,0,0,1-.782-3.694A7.7,7.7,0,0,1,174.6,3.245a4.5,4.5,0,0,1,4.039-2.1,4.406,4.406,0,0,1,3.182,1.193,6.09,6.09,0,0,1,1.412,2.492l.045.137h.735L183.6,0h-.767l-.011.188a1.215,1.215,0,0,1-.135.621.226.226,0,0,1-.189.109,2.681,2.681,0,0,1-.732-.212,13.144,13.144,0,0,0-1.861-.574A7.632,7.632,0,0,0,178.435,0a7.547,7.547,0,0,0-3.859.956,8.066,8.066,0,0,0-3.064,3.282,8.007,8.007,0,0,0-.942,3.754,7.413,7.413,0,0,0,1.678,4.78,7.939,7.939,0,0,0,6.528,2.764,10.859,10.859,0,0,0,2.708-.316" transform="translate(-137.865 0)" fill="#234c5c"/>
      <path id="Path_401" data-name="Path 401" d="M215.06,1.623h.712a1.832,1.832,0,0,1,.882.229.778.778,0,0,1,.352.36,4.437,4.437,0,0,1,.124,1.379v9.351a2.965,2.965,0,0,1-.214,1.522,1.351,1.351,0,0,1-1.145.446h-.712V15.7h6.6V14.91h-.723a1.775,1.775,0,0,1-.873-.231.769.769,0,0,1-.361-.359,4.417,4.417,0,0,1-.125-1.379V3.591c0-1.074.141-1.414.225-1.522a1.335,1.335,0,0,1,1.134-.446h.723V.829h-6.6Z" transform="translate(-164.604 -0.498)" fill="#234c5c"/>
      <path id="Path_402" data-name="Path 402" d="M251.8,2.2A6.785,6.785,0,0,0,246.776,0a7.152,7.152,0,0,0-5.014,1.943,7.548,7.548,0,0,0-2.412,5.772,7.846,7.846,0,0,0,2.089,5.636,7.158,7.158,0,0,0,10.35-.053,7.836,7.836,0,0,0,2.137-5.614A7.614,7.614,0,0,0,251.8,2.2m-9.61,5.471a8,8,0,0,1,1.418-5.126,3.6,3.6,0,0,1,2.963-1.368,3.769,3.769,0,0,1,3.089,1.377,8.619,8.619,0,0,1,1.418,5.416,7.612,7.612,0,0,1-1.282,4.889,3.977,3.977,0,0,1-3.215,1.519A3.526,3.526,0,0,1,243.665,13a8.446,8.446,0,0,1-1.472-5.331" transform="translate(-179.201 0)" fill="#234c5c"/>
      <path id="Path_403" data-name="Path 403" d="M292.479,1.623h.7a1.406,1.406,0,0,1,1.1.383c.092.1.247.438.247,1.532v7.788L285.973.829H281.75v.794h.2a3.259,3.259,0,0,1,.879.087,3.333,3.333,0,0,1,.9.409A6.165,6.165,0,0,1,284.6,3V13a2.944,2.944,0,0,1-.2,1.445,1.289,1.289,0,0,1-1.149.469h-.7V15.7h5.438V14.91h-.712a1.423,1.423,0,0,1-1.1-.38c-.089-.1-.239-.438-.239-1.534V4.64l9.191,11.226.059.073h.678V3.537a2.934,2.934,0,0,1,.2-1.445,1.277,1.277,0,0,1,1.138-.469h.712V.829h-5.438Z" transform="translate(-204.684 -0.498)" fill="#234c5c"/>
      <path id="Path_404" data-name="Path 404" d="M342.272,13.975a5.359,5.359,0,0,1-1.052-1.811L336.181.122,336.13,0h-.638l-5.145,12.036a6.406,6.406,0,0,1-1.16,2.015,2.216,2.216,0,0,1-1.071.364l-.165.029v.762h4.958v-.78l-.185-.013a2.486,2.486,0,0,1-1.251-.283.539.539,0,0,1-.24-.426,3.473,3.473,0,0,1,.346-1.181l.93-2.164h5.341l.824,1.96a4.3,4.3,0,0,1,.412,1.407.543.543,0,0,1-.23.442,1.907,1.907,0,0,1-1.053.244l-.19.009v.784h6.111v-.782l-.187-.012a2.069,2.069,0,0,1-1.264-.437m-4.888-4.8h-4.371l2.214-5.141Z" transform="translate(-232.451 0)" fill="#234c5c"/>
      <path id="Path_405" data-name="Path 405" d="M385.845,11.272l-.063.153a6.982,6.982,0,0,1-1.076,1.914,2.857,2.857,0,0,1-1.147.815,7.52,7.52,0,0,1-2.269.234h-1.057a6.4,6.4,0,0,1-1.592-.093.562.562,0,0,1-.292-.237,2.688,2.688,0,0,1-.148-1.126v-9.1a4.258,4.258,0,0,1,.15-1.544,1.119,1.119,0,0,1,.544-.476,3.827,3.827,0,0,1,1.528-.194l.2,0v-.8h-6.954v.794h.744a1.369,1.369,0,0,1,1.088.4c.093.107.25.452.25,1.566v9.341a3.134,3.134,0,0,1-.191,1.47,1.26,1.26,0,0,1-1.147.508h-.744V15.7h11.555l1.349-4.278Z" transform="translate(-259.928 -0.498)" fill="#234c5c"/>
      <path id="Path_406" data-name="Path 406" d="M97.379,56.111h.712a1.778,1.778,0,0,1,.874.23.772.772,0,0,1,.36.358,4.468,4.468,0,0,1,.125,1.39v3.943H93.124V58.089a4.578,4.578,0,0,1,.116-1.345.728.728,0,0,1,.366-.411,1.84,1.84,0,0,1,.877-.222h.723v-.794H88.6v.794h.712a1.83,1.83,0,0,1,.882.229.78.78,0,0,1,.352.359,4.481,4.481,0,0,1,.125,1.39V67.43a2.956,2.956,0,0,1-.215,1.522,1.347,1.347,0,0,1-1.144.446H88.6v.794h6.6V69.4h-.723a1.778,1.778,0,0,1-.873-.23.774.774,0,0,1-.361-.358,4.433,4.433,0,0,1-.125-1.379V63.22H99.45v4.21c0,1.073-.14,1.414-.224,1.522a1.338,1.338,0,0,1-1.135.446h-.712v.794h6.591V69.4h-.712a1.837,1.837,0,0,1-.882-.229.776.776,0,0,1-.352-.36,4.419,4.419,0,0,1-.125-1.379V58.089a4.749,4.749,0,0,1,.111-1.348.7.7,0,0,1,.371-.409,1.841,1.841,0,0,1,.877-.222h.712v-.794H97.379Z" transform="translate(-88.604 -33.245)" fill="#234c5c"/>
      <path id="Path_407" data-name="Path 407" d="M142.071,54.487a7.148,7.148,0,0,0-5.014,1.943,7.545,7.545,0,0,0-2.413,5.772,7.846,7.846,0,0,0,2.089,5.636,7.158,7.158,0,0,0,10.35-.053,7.837,7.837,0,0,0,2.137-5.615,7.615,7.615,0,0,0-2.122-5.482,6.787,6.787,0,0,0-5.028-2.2m-4.583,7.672a8,8,0,0,1,1.418-5.127,3.6,3.6,0,0,1,2.963-1.367,3.723,3.723,0,0,1,3.089,1.377,8.619,8.619,0,0,1,1.418,5.416,7.611,7.611,0,0,1-1.283,4.89,3.976,3.976,0,0,1-3.215,1.519,3.525,3.525,0,0,1-2.918-1.377,8.448,8.448,0,0,1-1.473-5.331" transform="translate(-116.274 -32.746)" fill="#234c5c"/>
      <path id="Path_408" data-name="Path 408" d="M188.228,66.366l-5.071-10.933-.053-.116h-4.426v.794h.2a2.793,2.793,0,0,1,1.195.186,1,1,0,0,1,.463.43,3.162,3.162,0,0,1,.192,1.3v9.459a2.931,2.931,0,0,1-.2,1.445,1.274,1.274,0,0,1-1.138.469h-.712v.794h5.437V69.4H183.4a1.4,1.4,0,0,1-1.1-.38c-.089-.1-.239-.438-.239-1.534v-8.76l5.266,11.468h.608L193.2,58.726v8.758a2.925,2.925,0,0,1-.2,1.448,1.26,1.26,0,0,1-1.136.466h-.712v.794H197.7V69.4h-.7a1.4,1.4,0,0,1-1.1-.382c-.093-.1-.248-.438-.248-1.532V58.025a2.928,2.928,0,0,1,.2-1.445,1.288,1.288,0,0,1,1.149-.469h.7v-.794h-4.427Z" transform="translate(-142.738 -33.245)" fill="#234c5c"/>
      <path id="Path_409" data-name="Path 409" d="M245.093,66.271a8.083,8.083,0,0,1-1.319,1.946,2.476,2.476,0,0,1-.987.624,6.494,6.494,0,0,1-1.724.162h-2.455a1.586,1.586,0,0,1-.712-.1.47.47,0,0,1-.213-.233,4.024,4.024,0,0,1-.071-1.094V63.007h2.982a3.056,3.056,0,0,1,1.257.193,1.134,1.134,0,0,1,.539.5,5.108,5.108,0,0,1,.28,1.295l.024.172h.768V59.726h-.784l-.01.189a2.237,2.237,0,0,1-.553,1.592,2.344,2.344,0,0,1-1.521.322h-2.982V56.506h3.772a4.72,4.72,0,0,1,1.428.145,1.5,1.5,0,0,1,.715.575,4.872,4.872,0,0,1,.469,1.5l.031.161h.79l-.181-3.569H233.093v.794h.712a1.479,1.479,0,0,1,1.13.358c.086.1.229.433.229,1.566v9.405a4.66,4.66,0,0,1-.111,1.331.7.7,0,0,1-.371.4,1.841,1.841,0,0,1-.877.222h-.712v.794h11.5l1.387-4.029h-.828Z" transform="translate(-175.441 -33.245)" fill="#234c5c"/>
      <path id="Path_410" data-name="Path 410" d="M282.744,62.616a22.1,22.1,0,0,0-2.8-1.689,11.726,11.726,0,0,1-3.091-2.088,1.621,1.621,0,0,1-.412-1.078,1.857,1.857,0,0,1,.662-1.4,2.374,2.374,0,0,1,1.7-.624,3.734,3.734,0,0,1,1.8.477,3.4,3.4,0,0,1,1.338,1.281,6.057,6.057,0,0,1,.664,2.221l.024.173h.768V54.487h-.755l-.034.158a1.113,1.113,0,0,1-.225.564.44.44,0,0,1-.317.111,2.247,2.247,0,0,1-.763-.25,6.326,6.326,0,0,0-2.525-.583,4.473,4.473,0,0,0-3.18,1.18,3.773,3.773,0,0,0-1.258,2.831,3.6,3.6,0,0,0,.43,1.739,4.683,4.683,0,0,0,1.242,1.428,22.352,22.352,0,0,0,2.668,1.677c1.225.686,1.981,1.139,2.25,1.346a3.042,3.042,0,0,1,.858.95,2.072,2.072,0,0,1,.27.984,1.974,1.974,0,0,1-.709,1.518,2.835,2.835,0,0,1-1.974.653,4.273,4.273,0,0,1-2.025-.489A3.4,3.4,0,0,1,276,67.089a6.854,6.854,0,0,1-.722-2.264l-.029-.164h-.762v5.363h.767l.025-.17a1.067,1.067,0,0,1,.176-.553.364.364,0,0,1,.278-.1,5.613,5.613,0,0,1,1.257.326,12.09,12.09,0,0,0,1.4.4,7.212,7.212,0,0,0,1.219.1,4.832,4.832,0,0,0,3.419-1.244,3.956,3.956,0,0,0,1.339-2.98,3.829,3.829,0,0,0-.422-1.745,4.3,4.3,0,0,0-1.2-1.439" transform="translate(-200.234 -32.746)" fill="#234c5c"/>
    </g>
  </g>
</svg>
