<svg xmlns="http://www.w3.org/2000/svg" width="162" height="33.997" viewBox="0 0 162 33.997">
  <g id="Group_1529" data-name="Group 1529" transform="translate(-80 -58.011)">
    <path id="Path_411" data-name="Path 411" d="M170.733,71.3l.031-.093a1.314,1.314,0,0,0,0-.87l-.031-.093h-2.9l-.031.093a1.308,1.308,0,0,0,0,.87l.031.093h.8v2.374h-3.752V71.3h.8l.031-.093a1.308,1.308,0,0,0,0-.87l-.031-.093h-2.9l-.031.093a1.308,1.308,0,0,0,0,.87l.031.093h.8v6.33h-.8l-.031.093a1.308,1.308,0,0,0,0,.87l.031.093h2.9l.031-.093a1.308,1.308,0,0,0,0-.87l-.031-.093h-.8V74.821h3.752v2.811h-.8l-.031.093a1.308,1.308,0,0,0,0,.87l.031.093h2.9l.031-.093a1.314,1.314,0,0,0,0-.87l-.031-.093h-.8V71.3Z" transform="translate(-23.967 13.12)" fill="#823331"/>
    <path id="Path_412" data-name="Path 412" d="M195.928,72.123a4.379,4.379,0,0,0-.485-.931,3.3,3.3,0,0,0-.748-.777,3.669,3.669,0,0,0-1.024-.53,4.163,4.163,0,0,0-1.332-.2,3.842,3.842,0,0,0-1.892.426,3.657,3.657,0,0,0-1.216,1.077,4.21,4.21,0,0,0-.648,1.43,5.964,5.964,0,0,0,0,2.977,4.2,4.2,0,0,0,.648,1.43,3.658,3.658,0,0,0,1.216,1.077,3.842,3.842,0,0,0,1.892.426,4.163,4.163,0,0,0,1.332-.2,3.68,3.68,0,0,0,1.024-.53,3.294,3.294,0,0,0,.748-.777,4.362,4.362,0,0,0,.485-.931,5.1,5.1,0,0,0,.265-1,6.3,6.3,0,0,0,.08-.985,6.409,6.409,0,0,0-.08-.99,5.114,5.114,0,0,0-.265-1m-1.035,1.992a4.543,4.543,0,0,1-.2,1.376,3.212,3.212,0,0,1-.537,1.038,2.345,2.345,0,0,1-.806.652,2.327,2.327,0,0,1-2.844-.653,3.158,3.158,0,0,1-.542-1.037,4.548,4.548,0,0,1-.2-1.377,4.6,4.6,0,0,1,.2-1.382,3.147,3.147,0,0,1,.542-1.042,2.41,2.41,0,0,1,.811-.653,2.389,2.389,0,0,1,2.033,0,2.348,2.348,0,0,1,.806.652,3.2,3.2,0,0,1,.537,1.043,4.6,4.6,0,0,1,.2,1.382" transform="translate(-40.393 13.477)" fill="#823331"/>
    <path id="Path_413" data-name="Path 413" d="M223.01,70.976l.031-.093a1.308,1.308,0,0,0,0-.87l-.031-.093h-1.748l.007-.184-.061.184h-.791l-1.935,5.852c-.023.068-.051.159-.086.273s-.068.234-.1.363q-.032.119-.065.24c-.019-.071-.04-.142-.061-.214l-.106-.375c-.035-.123-.067-.227-.1-.309l-1.935-5.83h-.907l-.044-.133.005.133h-1.625l-.031.093a1.308,1.308,0,0,0,0,.87l.031.093h.8v6.33h-.8l-.031.093a1.308,1.308,0,0,0,0,.87l.031.093h2.762l.03-.093a1.3,1.3,0,0,0,0-.87l-.03-.093h-.814V71.928c0-.087,0-.188,0-.3l2.167,6.52h1.193l2.178-6.564q0,.192,0,.344v5.378h-.8l-.031.093a1.314,1.314,0,0,0,0,.87l.031.093h2.874l.031-.093a1.308,1.308,0,0,0,0-.87l-.031-.093H222.2v-6.33Z" transform="translate(-56.343 13.446)" fill="#823331"/>
    <path id="Path_414" data-name="Path 414" d="M248.253,76.012l-.1.028v1.5h-3.2v-2.62h3.359l.03-.095a1.578,1.578,0,0,0,.074-.478,1.665,1.665,0,0,0-.073-.476l-.029-.1h-3.361V71.392h3.125v1.465l.094.03a1.6,1.6,0,0,0,.954,0l.1-.029V70.247h-6.363l-.031.093a1.314,1.314,0,0,0,0,.87l.031.093h.8v6.33h-.8l-.031.093a1.314,1.314,0,0,0,0,.87l.031.093h6.43V76.045l-.093-.031a1.543,1.543,0,0,0-.942,0" transform="translate(-75.132 13.12)" fill="#823331"/>
    <path id="Path_415" data-name="Path 415" d="M270.505,74.45a2.584,2.584,0,0,0-.721-.509,5.2,5.2,0,0,0-.932-.34l-1.794-.482a1.792,1.792,0,0,1-.823-.4.877.877,0,0,1-.24-.655,1.027,1.027,0,0,1,.425-.9,1.939,1.939,0,0,1,1.143-.317,2.7,2.7,0,0,1,.89.132,1.839,1.839,0,0,1,.622.354,1.442,1.442,0,0,1,.493,1.093v.469l.095.03a1.6,1.6,0,0,0,.954,0l.1-.029V69.948l-.093-.031a1.518,1.518,0,0,0-.934,0l-.095.03v.5a2.48,2.48,0,0,0-.622-.429,3.272,3.272,0,0,0-1.461-.294,3.492,3.492,0,0,0-1.049.157,2.657,2.657,0,0,0-.891.472,2.355,2.355,0,0,0-.618.779,2.392,2.392,0,0,0-.233,1.08,2.031,2.031,0,0,0,.151.8,1.989,1.989,0,0,0,.4.606,2.276,2.276,0,0,0,.584.429,3.368,3.368,0,0,0,.677.263l1.782.482a3.961,3.961,0,0,1,.6.211,1.9,1.9,0,0,1,.46.287,1.181,1.181,0,0,1,.292.378,1.147,1.147,0,0,1,.1.506,1.026,1.026,0,0,1-.437.888,2.231,2.231,0,0,1-1.321.333,3.233,3.233,0,0,1-.984-.139,2.306,2.306,0,0,1-.725-.37,1.617,1.617,0,0,1-.445-.527,1.321,1.321,0,0,1-.153-.61v-.568l-.093-.031a1.613,1.613,0,0,0-.964,0l-.1.028v3.137l.095.03a1.524,1.524,0,0,0,.931,0l.1-.029v-.6a3.059,3.059,0,0,0,.8.533,3.738,3.738,0,0,0,1.576.293,4.389,4.389,0,0,0,1.19-.156,3.039,3.039,0,0,0,.979-.463,2.259,2.259,0,0,0,.661-.751,2.113,2.113,0,0,0,.24-1.017,2.826,2.826,0,0,0-.154-.977,2.042,2.042,0,0,0-.456-.726" transform="translate(-89.058 13.457)" fill="#823331"/>
    <g id="Group_1530" data-name="Group 1530" transform="translate(103.031 58.309)">
      <path id="Path_416" data-name="Path 416" d="M74.575.826H63.807V2.9h4.272V18.574H70.3V2.9h4.273Z" transform="translate(-63.807 -0.826)" fill="#e16d5c"/>
      <path id="Path_417" data-name="Path 417" d="M95.065,13.762a4.023,4.023,0,0,0-3.437,1.652,8.612,8.612,0,0,0-1.19,5.037,9.1,9.1,0,0,0,1.111,4.994,3.949,3.949,0,0,0,3.516,1.695A4.042,4.042,0,0,0,98.488,25.5a8.531,8.531,0,0,0,1.2-5.051,9.1,9.1,0,0,0-1.111-4.993,3.949,3.949,0,0,0-3.516-1.7M97.333,18.5a13.2,13.2,0,0,1,.134,1.948,7.938,7.938,0,0,1-.623,3.65,1.9,1.9,0,0,1-1.779,1.063,1.807,1.807,0,0,1-1.086-.326,2.437,2.437,0,0,1-.751-.938A5.284,5.284,0,0,1,92.8,22.41a13.1,13.1,0,0,1-.135-1.96,7.816,7.816,0,0,1,.635-3.637,1.909,1.909,0,0,1,1.768-1.075,1.811,1.811,0,0,1,1.086.326A2.443,2.443,0,0,1,96.9,17a5.348,5.348,0,0,1,.431,1.5" transform="translate(-80.826 -9.093)" fill="#e16d5c"/>
      <path id="Path_418" data-name="Path 418" d="M129.68,21.945l-.235,1.534-.284-1.509-2.249-7.381h-1.586l-2.078,7.327-.277,1.524-.215-1.488-1.948-7.363H118.57l3.5,13.053h1.291l2.478-8.273.2-1.189.2,1.188,2.548,8.274h1.291l3.4-13.053H131.4Z" transform="translate(-98.803 -9.621)" fill="#e16d5c"/>
      <path id="Path_419" data-name="Path 419" d="M172.052,14.815a2.422,2.422,0,0,0-1.1-.817,4.262,4.262,0,0,0-1.465-.235,3.944,3.944,0,0,0-2.016.5,4.32,4.32,0,0,0-1.159.963l-.285-1.162h-1.614v12.78h2.149V17.65a3.339,3.339,0,0,1,.886-1.363,2.133,2.133,0,0,1,1.517-.548,1.419,1.419,0,0,1,1.393.735,6.052,6.052,0,0,1,.414,2.611v7.756h2.149V18.613a10.325,10.325,0,0,0-.216-2.3,3.946,3.946,0,0,0-.654-1.5" transform="translate(-128.1 -9.093)" fill="#e16d5c"/>
    </g>
    <g id="Group_1531" data-name="Group 1531" transform="translate(173.678 58.011)">
      <path id="Path_420" data-name="Path 420" d="M268.774,15.506a4.73,4.73,0,0,1-1.1.537,4.389,4.389,0,0,1-1.455.226,3.62,3.62,0,0,1-3.154-1.747,9.617,9.617,0,0,1-1.211-5.35,14.16,14.16,0,0,1,.342-3.359,6.694,6.694,0,0,1,.917-2.189,3.545,3.545,0,0,1,1.3-1.183,3.455,3.455,0,0,1,1.559-.366,7,7,0,0,1,1.5.145,4.237,4.237,0,0,1,1.12.4l.2.111.546-2.062L269.2.611A7.8,7.8,0,0,0,267.81.178,9.572,9.572,0,0,0,265.8,0a5.935,5.935,0,0,0-2.343.487,5.181,5.181,0,0,0-2.021,1.594,8.426,8.426,0,0,0-1.385,2.842,15.156,15.156,0,0,0-.517,4.249,16.77,16.77,0,0,0,.453,4.169,8.215,8.215,0,0,0,1.284,2.857,5.053,5.053,0,0,0,2,1.634,6.134,6.134,0,0,0,2.508.512,8.832,8.832,0,0,0,2.029-.228,3.918,3.918,0,0,0,1.639-.783l.09-.075-.55-1.893Z" transform="translate(-259.53)" fill="#e16d5c"/>
      <path id="Path_421" data-name="Path 421" d="M294.709,13.762a4.022,4.022,0,0,0-3.437,1.652,8.611,8.611,0,0,0-1.19,5.037,9.1,9.1,0,0,0,1.111,4.994,3.949,3.949,0,0,0,3.516,1.695,4.041,4.041,0,0,0,3.423-1.638,8.529,8.529,0,0,0,1.2-5.051,9.1,9.1,0,0,0-1.111-4.993,3.949,3.949,0,0,0-3.515-1.7m2.268,4.741a13.24,13.24,0,0,1,.134,1.948,7.938,7.938,0,0,1-.623,3.65,1.9,1.9,0,0,1-1.78,1.063,1.808,1.808,0,0,1-1.087-.326,2.436,2.436,0,0,1-.75-.938,5.268,5.268,0,0,1-.431-1.489,13.1,13.1,0,0,1-.135-1.96,7.812,7.812,0,0,1,.635-3.637,1.909,1.909,0,0,1,1.768-1.075,1.812,1.812,0,0,1,1.086.326,2.447,2.447,0,0,1,.75.938,5.32,5.32,0,0,1,.432,1.5" transform="translate(-279.054 -8.795)" fill="#e16d5c"/>
      <path id="Path_422" data-name="Path 422" d="M330.64,25.5c-.041-.631-.062-1.249-.062-1.839V14.589h-2.149V23.36a4.812,4.812,0,0,1-.375.859,3.919,3.919,0,0,1-.545.76,2.487,2.487,0,0,1-.683.521,1.836,1.836,0,0,1-.849.191,1.238,1.238,0,0,1-1.24-.7,6.646,6.646,0,0,1-.367-2.617V14.589h-2.149v8.228a10.75,10.75,0,0,0,.216,2.364,3.7,3.7,0,0,0,.669,1.5,2.367,2.367,0,0,0,1.1.778,4.607,4.607,0,0,0,1.448.208,3.367,3.367,0,0,0,2.1-.646,4.532,4.532,0,0,0,1.095-1.185l.394,1.533h1.621l-.036-.211a15.785,15.785,0,0,1-.184-1.657" transform="translate(-299.592 -9.323)" fill="#e16d5c"/>
      <path id="Path_423" data-name="Path 423" d="M361.581,14.815a2.426,2.426,0,0,0-1.1-.817,4.265,4.265,0,0,0-1.465-.235,3.941,3.941,0,0,0-2.016.5,4.32,4.32,0,0,0-1.159.963l-.285-1.162h-1.613v12.78h2.149V17.65a3.338,3.338,0,0,1,.886-1.363,2.133,2.133,0,0,1,1.517-.548,1.419,1.419,0,0,1,1.393.735,6.05,6.05,0,0,1,.414,2.611v7.756h2.149V18.613a10.338,10.338,0,0,0-.215-2.3,3.946,3.946,0,0,0-.654-1.5" transform="translate(-319.864 -8.795)" fill="#e16d5c"/>
      <path id="Path_424" data-name="Path 424" d="M388.258,19.8c-.275.113-.534.207-.767.28a2.736,2.736,0,0,1-.8.1.716.716,0,0,1-.7-.389,3.379,3.379,0,0,1-.239-1.491V11.081h2.683V9.106H385.75v-3.1L383.6,6.7v2.41h-1.516v1.975H383.6v7.47a5.006,5.006,0,0,0,.564,2.72,2.146,2.146,0,0,0,1.927.888,6.008,6.008,0,0,0,2.664-.615l.129-.065-.432-1.759Z" transform="translate(-337.849 -3.84)" fill="#e16d5c"/>
      <path id="Path_425" data-name="Path 425" d="M408.471,14.415a3.009,3.009,0,0,0-.787.874l-.269-1.1h-1.589v12.78h2.149l0-9.287a2.017,2.017,0,0,1,.591-1.131,2.092,2.092,0,0,1,2.253-.2l.2.068.417-2.176-.154-.048a3.027,3.027,0,0,0-2.805.213" transform="translate(-353.021 -8.928)" fill="#e16d5c"/>
      <path id="Path_426" data-name="Path 426" d="M429.675,14.589l-1.923,8.176-.276,1.782-.388-1.792-2.375-8.165h-2.421L426.378,27.2a10.059,10.059,0,0,1-.442,1.7,3.2,3.2,0,0,1-.538.975,1.081,1.081,0,0,1-.561.366,1.067,1.067,0,0,1-.6-.043l-.2-.072-.36,2.04.131.056a3.265,3.265,0,0,0,1.288.239,1.872,1.872,0,0,0,1.329-.534,4.734,4.734,0,0,0,.957-1.394,14.2,14.2,0,0,0,.768-2.051c.23-.772.465-1.619.7-2.514l3.016-11.379Z" transform="translate(-363.543 -9.323)" fill="#e16d5c"/>
    </g>
    <path id="Path_427" data-name="Path 427" d="M220.245,25.408H218.5l-1.21-1.461a7.855,7.855,0,0,0,.6-1.422c.1-.344.174-.609.214-.789h1.224l.046-.113a1.646,1.646,0,0,0,0-1.253l-.046-.112h-2.8l-.02.157c-.024.187-.077.492-.164.933a6.913,6.913,0,0,1-.321,1.1l-2.453-2.937c-.535-.631-.949-1.159-1.23-1.57a1.93,1.93,0,0,1-.4-1.05,1.258,1.258,0,0,1,.34-.87,1.641,1.641,0,0,1,1.244-.372,3.273,3.273,0,0,1,1.359.253,11.594,11.594,0,0,1,1.212.656l.275.169V14.835l-.1-.05a12.325,12.325,0,0,0-1.222-.53,4.664,4.664,0,0,0-1.635-.264,3.479,3.479,0,0,0-2.448.822,2.864,2.864,0,0,0-.913,2.149v.108a2.945,2.945,0,0,0,.029.375,2.249,2.249,0,0,0,.169.559,6.341,6.341,0,0,0,.4.761,10.073,10.073,0,0,0,.6.871,7.765,7.765,0,0,0-1.242.777,4.517,4.517,0,0,0-.938.976,3.546,3.546,0,0,0-.513,1.119,5.107,5.107,0,0,0-.153,1.279,3.274,3.274,0,0,0,.183.964,3.317,3.317,0,0,0,.64,1.124,3.714,3.714,0,0,0,1.226.919,4.36,4.36,0,0,0,1.918.379,4.808,4.808,0,0,0,2.33-.527,6.327,6.327,0,0,0,1.467-1.093l1.1,1.331h2.982l.046-.112a1.648,1.648,0,0,0,0-1.253Zm-5.188-1.167a3.9,3.9,0,0,1-1.01.878,2.9,2.9,0,0,1-1.515.379,2.179,2.179,0,0,1-1.568-.572,1.942,1.942,0,0,1-.6-1.5,2.282,2.282,0,0,1,.47-1.4,4,4,0,0,1,1.47-1.1Z" transform="translate(-53.177 49.07)" fill="#823331"/>
    <path id="Path_428" data-name="Path 428" d="M.07,7.656,0,7.71v4.212L8.055,5.746l8.058,6.176V7.71L8.055,1.5Z" transform="translate(80 57.052)" fill="#823331"/>
    <path id="Path_429" data-name="Path 429" d="M.07,28.12,0,28.174v4.212L8.055,26.21l8.058,6.176V28.174L8.055,21.966Z" transform="translate(80 43.974)" fill="#823331"/>
  </g>
</svg>
